# Blender v2.82 (sub 7) OBJ File: ''
# www.blender.org
mtllib collision_mesh.mtl
o Object.001_pine_e.001
v 0.169325 -0.076625 -0.016270
v 0.129439 -0.076625 -0.112564
v 0.033145 -0.076625 -0.152450
v -0.063149 -0.076625 -0.112564
v -0.103036 -0.076625 -0.016270
v -0.063149 -0.076623 0.080024
v 0.033144 -0.076625 0.119910
v 0.129439 -0.076623 0.080024
v 0.124593 1.380414 0.119818
v 0.090625 1.378202 0.037630
v 0.008486 1.376340 0.003537
v -0.073710 1.375919 0.037511
v -0.107813 1.377185 0.119651
v -0.073846 1.379398 0.201839
v 0.008293 1.381260 0.235932
v 0.090490 1.381681 0.201958
v 0.169320 2.862320 0.218481
v 0.136273 2.854996 0.137914
v 0.055852 2.848826 0.104393
v -0.024833 2.847422 0.137555
v -0.058518 2.851608 0.217973
v -0.025471 2.858931 0.298540
v 0.054950 2.865102 0.332061
v 0.135635 2.866505 0.298899
v 0.220931 4.096071 0.381138
v 0.189525 4.083154 0.303489
v 0.112004 4.072337 0.271171
v 0.033779 4.069958 0.303115
v 0.000672 4.077408 0.380608
v 0.032078 4.090325 0.458257
v 0.109599 4.101142 0.490575
v 0.187825 4.103522 0.458631
v 0.480731 5.682011 0.522569
v 0.458348 5.677032 0.474641
v 0.409276 5.685569 0.455579
v 0.362260 5.702621 0.476551
v 0.344842 5.718199 0.525271
v 0.367225 5.723178 0.573200
v 0.416298 5.714641 0.592261
v 0.463313 5.697589 0.571289
v 0.906344 7.010562 0.543562
v 0.887829 7.010054 0.506640
v 0.851155 7.023782 0.492201
v 0.817804 7.043705 0.508703
v 0.807313 7.058150 0.546479
v 0.825828 7.058658 0.583401
v 0.862502 7.044930 0.597840
v 0.895853 7.025008 0.581338
v 1.360952 9.212862 0.534365
vt -3.333591 1.691928
vt -3.108257 1.688573
vt -3.310821 1.675786
vt -3.822626 1.661059
vt -4.343863 1.653017
vt -4.569201 1.656372
vt -4.366632 1.669159
vt -3.854829 1.683886
vt 0.002235 -2.565513
vt 0.117732 -2.565513
vt 0.117732 -1.390210
vt 0.002235 -1.390210
vt 0.240203 -2.565513
vt 0.240203 -1.390210
vt 0.369297 -2.565513
vt 0.369297 -1.390210
vt 0.502252 -2.565513
vt 0.502252 -1.390210
vt 0.635713 -2.565513
vt 0.635713 -1.390210
vt 0.766267 -2.565513
vt 0.766267 -1.390210
vt 0.874028 -2.565513
vt 0.874028 -1.390210
vt 0.999866 -2.565513
vt 0.999866 -1.390210
vt 0.117732 -0.270039
vt 0.002235 -0.270039
vt 0.240203 -0.270039
vt 0.369297 -0.270039
vt 0.502252 -0.270039
vt 0.635713 -0.270039
vt 0.766267 -0.270039
vt 0.874028 -0.270039
vt 0.999866 -0.270039
vt 0.117732 0.900424
vt 0.002235 0.900424
vt 0.240203 0.900424
vt 0.369297 0.900424
vt 0.502252 0.900424
vt 0.635713 0.900424
vt 0.766267 0.900424
vt 0.874028 0.900424
vt 0.999866 0.900424
vt 0.117732 1.930678
vt 0.002235 1.930678
vt 0.240203 1.930678
vt 0.369297 1.930678
vt 0.502252 1.930678
vt 0.635713 1.930678
vt 0.766267 1.930678
vt 0.874028 1.930678
vt 0.999866 1.930678
vt 0.117732 2.987566
vt 0.002235 2.987566
vt 0.240203 2.987566
vt 0.369297 2.987566
vt 0.502252 2.987566
vt 0.635713 2.987566
vt 0.766267 2.987566
vt 0.874028 2.987566
vt 0.999866 2.987566
vt 0.497621 5.587062
vn 0.0000 -1.0000 -0.0000
vn 0.7861 -0.6178 -0.0176
vn 0.5609 -0.5953 -0.5753
vn 0.7045 0.0596 -0.7072
vn 1.0000 -0.0005 0.0039
vn 0.0032 -0.5897 -0.8076
vn -0.0061 0.0882 -0.9961
vn -0.5530 -0.6041 -0.5738
vn -0.7097 0.0688 -0.7011
vn -0.7758 -0.6306 -0.0176
vn -0.9999 0.0144 0.0025
vn -0.5421 -0.6539 0.5277
vn -0.7080 -0.0431 0.7049
vn 0.0032 -0.6598 0.7514
vn -0.0059 -0.0717 0.9974
vn 0.5508 -0.6447 0.5300
vn 0.7011 -0.0549 0.7110
vn 0.7018 0.0471 -0.7108
vn 0.9994 -0.0344 -0.0032
vn -0.0021 0.1006 -0.9949
vn -0.6979 0.0992 -0.7093
vn -0.9990 0.0433 -0.0129
vn -0.7118 -0.0390 0.7013
vn -0.0009 -0.0971 0.9953
vn 0.7043 -0.0949 0.7035
vn 0.7041 0.0146 -0.7099
vn 0.9939 -0.1077 0.0244
vn -0.0178 0.1296 -0.9914
vn -0.6988 0.1669 -0.6955
vn -0.9922 0.1236 -0.0132
vn -0.7184 0.0242 0.6951
vn -0.0186 -0.0876 0.9960
vn 0.6793 -0.1465 0.7191
vn 0.6770 -0.1127 -0.7273
vn 0.9718 -0.2358 0.0065
vn -0.0132 0.0772 -0.9969
vn -0.6792 0.2248 -0.6987
vn -0.9647 0.2633 0.0064
vn -0.6797 0.1611 0.7155
vn -0.0083 -0.0304 0.9995
vn 0.6630 -0.1966 0.7223
vn 0.6603 -0.1667 -0.7323
vn 0.9653 -0.2571 -0.0444
vn -0.0083 0.0276 -0.9996
vn -0.6866 0.2165 -0.6940
vn -0.9575 0.2849 0.0459
vn -0.6384 0.1923 0.7453
vn 0.0464 0.0027 0.9989
vn 0.7113 -0.1838 0.6784
vn 0.2220 0.9750 -0.0067
usemtl trunk
s off
f 8/1/1 7/2/1 6/3/1
f 6/3/1 5/4/1 4/5/1
f 4/5/1 3/6/1 2/7/1
f 6/3/1 4/5/1 2/7/1
f 8/1/1 6/3/1 2/7/1
f 1/8/1 8/1/1 2/7/1
s 1
f 1/9/2 2/10/3 10/11/4
f 10/11/4 9/12/5 1/9/2
f 2/10/3 3/13/6 11/14/7
f 11/14/7 10/11/4 2/10/3
f 3/13/6 4/15/8 12/16/9
f 12/16/9 11/14/7 3/13/6
f 4/15/8 5/17/10 13/18/11
f 13/18/11 12/16/9 4/15/8
f 5/17/10 6/19/12 14/20/13
f 14/20/13 13/18/11 5/17/10
f 6/19/12 7/21/14 15/22/15
f 15/22/15 14/20/13 6/19/12
f 7/21/14 8/23/16 16/24/17
f 16/24/17 15/22/15 7/21/14
f 8/23/16 1/25/2 9/26/5
f 9/26/5 16/24/17 8/23/16
f 9/12/5 10/11/4 18/27/18
f 18/27/18 17/28/19 9/12/5
f 10/11/4 11/14/7 19/29/20
f 19/29/20 18/27/18 10/11/4
f 11/14/7 12/16/9 20/30/21
f 20/30/21 19/29/20 11/14/7
f 12/16/9 13/18/11 21/31/22
f 21/31/22 20/30/21 12/16/9
f 13/18/11 14/20/13 22/32/23
f 22/32/23 21/31/22 13/18/11
f 14/20/13 15/22/15 23/33/24
f 23/33/24 22/32/23 14/20/13
f 15/22/15 16/24/17 24/34/25
f 24/34/25 23/33/24 15/22/15
f 16/24/17 9/26/5 17/35/19
f 17/35/19 24/34/25 16/24/17
f 17/28/19 18/27/18 26/36/26
f 26/36/26 25/37/27 17/28/19
f 18/27/18 19/29/20 27/38/28
f 27/38/28 26/36/26 18/27/18
f 19/29/20 20/30/21 28/39/29
f 28/39/29 27/38/28 19/29/20
f 20/30/21 21/31/22 29/40/30
f 29/40/30 28/39/29 20/30/21
f 21/31/22 22/32/23 30/41/31
f 30/41/31 29/40/30 21/31/22
f 22/32/23 23/33/24 31/42/32
f 31/42/32 30/41/31 22/32/23
f 23/33/24 24/34/25 32/43/33
f 32/43/33 31/42/32 23/33/24
f 24/34/25 17/35/19 25/44/27
f 25/44/27 32/43/33 24/34/25
f 25/37/27 26/36/26 34/45/34
f 34/45/34 33/46/35 25/37/27
f 26/36/26 27/38/28 35/47/36
f 35/47/36 34/45/34 26/36/26
f 27/38/28 28/39/29 36/48/37
f 36/48/37 35/47/36 27/38/28
f 28/39/29 29/40/30 37/49/38
f 37/49/38 36/48/37 28/39/29
f 29/40/30 30/41/31 38/50/39
f 38/50/39 37/49/38 29/40/30
f 30/41/31 31/42/32 39/51/40
f 39/51/40 38/50/39 30/41/31
f 31/42/32 32/43/33 40/52/41
f 40/52/41 39/51/40 31/42/32
f 32/43/33 25/44/27 33/53/35
f 33/53/35 40/52/41 32/43/33
f 33/46/35 34/45/34 42/54/42
f 42/54/42 41/55/43 33/46/35
f 34/45/34 35/47/36 43/56/44
f 43/56/44 42/54/42 34/45/34
f 35/47/36 36/48/37 44/57/45
f 44/57/45 43/56/44 35/47/36
f 36/48/37 37/49/38 45/58/46
f 45/58/46 44/57/45 36/48/37
f 37/49/38 38/50/39 46/59/47
f 46/59/47 45/58/46 37/49/38
f 38/50/39 39/51/40 47/60/48
f 47/60/48 46/59/47 38/50/39
f 39/51/40 40/52/41 48/61/49
f 48/61/49 47/60/48 39/51/40
f 40/52/41 33/53/35 41/62/43
f 41/62/43 48/61/49 40/52/41
f 41/55/43 42/54/42 49/63/50
f 42/54/42 43/56/44 49/63/50
f 43/56/44 44/57/45 49/63/50
f 44/57/45 45/58/46 49/63/50
f 45/58/46 46/59/47 49/63/50
f 46/59/47 47/60/48 49/63/50
f 47/60/48 48/61/49 49/63/50
f 48/61/49 41/62/43 49/63/50
